<svg width="200" height="200" viewBox="0 0 200 200" fill="none" xmlns="http://www.w3.org/2000/svg">
<rect width="200" height="200" fill="#1E1E1E"/>
<g clip-path="url(#clip0_0_1)">
<rect width="200" height="200" fill="white"/>
<path d="M151.818 200V130.182H162.182V140.727H162.909C164.182 137.273 166.485 134.47 169.818 132.318C173.152 130.167 176.909 129.091 181.091 129.091C181.879 129.091 182.864 129.106 184.045 129.136C185.227 129.167 186.121 129.212 186.727 129.273V140.182C186.364 140.091 185.53 139.955 184.227 139.773C182.955 139.561 181.606 139.455 180.182 139.455C176.788 139.455 173.758 140.167 171.091 141.591C168.455 142.985 166.364 144.924 164.818 147.409C163.303 149.864 162.545 152.667 162.545 155.818V200H151.818Z" fill="black"/>
</g>
<defs>
<clipPath id="clip0_0_1">
<rect width="200" height="200" fill="white"/>
</clipPath>
</defs>
</svg>
