<svg width="200" height="200" viewBox="0 0 200 200" fill="none" xmlns="http://www.w3.org/2000/svg">
<rect width="200" height="200" fill="#1E1E1E"/>
<g clip-path="url(#clip0_0_1)">
<rect width="200" height="200" fill="white"/>
<path d="M149.727 190V120.182H168.5V132.364H169.227C170.5 128.03 172.636 124.758 175.636 122.545C178.636 120.303 182.091 119.182 186 119.182C186.97 119.182 188.015 119.242 189.136 119.364C190.258 119.485 191.242 119.652 192.091 119.864V137.045C191.182 136.773 189.924 136.53 188.318 136.318C186.712 136.106 185.242 136 183.909 136C181.061 136 178.515 136.621 176.273 137.864C174.061 139.076 172.303 140.773 171 142.955C169.727 145.136 169.091 147.652 169.091 150.5V190H149.727Z" fill="black"/>
</g>
<defs>
<clipPath id="clip0_0_1">
<rect width="200" height="200" fill="white"/>
</clipPath>
</defs>
</svg>
