<svg width="200" height="200" viewBox="0 0 200 200" fill="none" xmlns="http://www.w3.org/2000/svg">
<rect width="200" height="200" fill="#1E1E1E"/>
<g clip-path="url(#clip0_0_1)">
<rect width="200" height="200" fill="white"/>
<path d="M103.818 194V124.182H114.182V134.727H114.909C116.182 131.273 118.485 128.47 121.818 126.318C125.152 124.167 128.909 123.091 133.091 123.091C133.879 123.091 134.864 123.106 136.045 123.136C137.227 123.167 138.121 123.212 138.727 123.273V134.182C138.364 134.091 137.53 133.955 136.227 133.773C134.955 133.561 133.606 133.455 132.182 133.455C128.788 133.455 125.758 134.167 123.091 135.591C120.455 136.985 118.364 138.924 116.818 141.409C115.303 143.864 114.545 146.667 114.545 149.818V194H103.818ZM151.443 194V124.182H161.807V134.727H162.534C163.807 131.273 166.11 128.47 169.443 126.318C172.777 124.167 176.534 123.091 180.716 123.091C181.504 123.091 182.489 123.106 183.67 123.136C184.852 123.167 185.746 123.212 186.352 123.273V134.182C185.989 134.091 185.155 133.955 183.852 133.773C182.58 133.561 181.231 133.455 179.807 133.455C176.413 133.455 173.383 134.167 170.716 135.591C168.08 136.985 165.989 138.924 164.443 141.409C162.928 143.864 162.17 146.667 162.17 149.818V194H151.443Z" fill="black"/>
</g>
<defs>
<clipPath id="clip0_0_1">
<rect width="200" height="200" fill="white"/>
</clipPath>
</defs>
</svg>
