<svg width="200" height="200" viewBox="0 0 200 200" fill="none" xmlns="http://www.w3.org/2000/svg">
<g clip-path="url(#clip0_14_2)">
<path d="M0 8C0 3.58173 3.58172 0 8 0H192C196.418 0 200 3.58172 200 8V192C200 196.418 196.418 200 192 200H8C3.58173 200 0 196.418 0 192V8Z" fill="#D2D1D1"/>
<path d="M152.9 60.5C158.9 51.3 166.4 44.1 175.4 38.9C184.4 33.5 194.4 30.8 205.4 30.8V85.1H191.3C178.5 85.1 168.9 87.9 162.5 93.5C156.1 98.9 152.9 108.5 152.9 122.3V200H101.6V32.6H152.9V60.5Z" fill="black"/>
</g>
<defs>
<clipPath id="clip0_14_2">
<path d="M0 8C0 3.58173 3.58172 0 8 0H192C196.418 0 200 3.58172 200 8V192C200 196.418 196.418 200 192 200H8C3.58173 200 0 196.418 0 192V8Z" fill="white"/>
</clipPath>
</defs>
</svg>
