<svg width="200" height="200" viewBox="0 0 200 200" fill="none" xmlns="http://www.w3.org/2000/svg">
<rect width="200" height="200" fill="#1E1E1E"/>
<g clip-path="url(#clip0_0_1)">
<path d="M0 8C0 3.58173 3.58172 0 8 0H192C196.418 0 200 3.58172 200 8V192C200 196.418 196.418 200 192 200H8C3.58173 200 0 196.418 0 192V8Z" fill="#D2D1D1"/>
<path d="M166.824 133.48C169.384 129.555 172.584 126.483 176.424 124.264C180.264 121.96 184.531 120.808 189.224 120.808V143.976H183.208C177.747 143.976 173.651 145.171 170.92 147.56C168.189 149.864 166.824 153.96 166.824 159.848V193H144.936V121.576H166.824V133.48Z" fill="black"/>
</g>
<defs>
<clipPath id="clip0_0_1">
<path d="M0 8C0 3.58173 3.58172 0 8 0H192C196.418 0 200 3.58172 200 8V192C200 196.418 196.418 200 192 200H8C3.58173 200 0 196.418 0 192V8Z" fill="white"/>
</clipPath>
</defs>
</svg>
