<svg width="200" height="200" viewBox="0 0 200 200" fill="none" xmlns="http://www.w3.org/2000/svg">
<g clip-path="url(#clip0_14_12)">
<path d="M0 8C0 3.58173 3.58172 0 8 0H192C196.418 0 200 3.58172 200 8V192C200 196.418 196.418 200 192 200H8C3.58173 200 0 196.418 0 192V8Z" fill="black"/>
<path d="M181 -4.4C185 -4.4 189.267 -4.13334 193.8 -3.60001C198.6 -3.33335 202.733 -2.80001 206.2 -2.00001L201.8 30.4C198.333 29.6 194.467 28.9333 190.2 28.4C186.2 27.8667 182.333 27.6 178.6 27.6C170.333 27.6 162.467 29.3333 155 32.8C147.533 36.2667 140.867 41.2 135 47.6C129.133 53.7333 124.467 61.2 121 70C117.8 78.8 116.2 88.6667 116.2 99.6V214H81V-0.400005H109.8L113.8 38.8H115.4C119.933 30.8 125.4 23.6 131.8 17.2C138.2 10.5333 145.533 5.33333 153.8 1.59999C162.067 -2.4 171.133 -4.4 181 -4.4Z" fill="white"/>
</g>
<defs>
<clipPath id="clip0_14_12">
<path d="M0 8C0 3.58173 3.58172 0 8 0H192C196.418 0 200 3.58172 200 8V192C200 196.418 196.418 200 192 200H8C3.58173 200 0 196.418 0 192V8Z" fill="white"/>
</clipPath>
</defs>
</svg>
