<svg width="200" height="200" viewBox="0 0 200 200" fill="none" xmlns="http://www.w3.org/2000/svg">
<g clip-path="url(#clip0_14_12)">
<path d="M0 8C0 3.58173 3.58172 0 8 0H192C196.418 0 200 3.58172 200 8V192C200 196.418 196.418 200 192 200H8C3.58173 200 0 196.418 0 192V8Z" fill="black"/>
<path d="M204.596 31.4729C208.535 33.6499 212.59 36.2345 216.764 39.2268C221.345 42.1017 225.124 44.8763 228.102 47.5507L206.136 77.057C203.159 74.3827 199.714 71.6219 195.804 68.7747C192.155 66.0727 188.493 63.7057 184.818 61.6739C176.678 57.1749 167.989 54.6002 158.751 53.9499C149.513 53.2995 140.264 54.5287 131.004 57.6373C121.89 60.4833 113.232 65.2952 105.029 72.073C97.0893 78.9959 90.1441 87.8398 84.1938 98.6047L21.9334 211.243L-12.7245 192.086L103.959 -19.0121L132.316 -3.33818L114.92 37.435L116.496 38.3058C125.313 32.8962 134.614 28.7822 144.398 25.9639C154.328 22.883 164.379 21.7542 174.55 22.5773C184.866 23.138 194.881 26.1032 204.596 31.4729Z" fill="white"/>
</g>
<defs>
<clipPath id="clip0_14_12">
<path d="M0 8C0 3.58173 3.58172 0 8 0H192C196.418 0 200 3.58172 200 8V192C200 196.418 196.418 200 192 200H8C3.58173 200 0 196.418 0 192V8Z" fill="white"/>
</clipPath>
</defs>
</svg>
